<?xml version="1.0" standalone="no"?>
<!DOCTYPE svg PUBLIC "-//W3C//DTD SVG 20010904//EN"
 "http://www.w3.org/TR/2001/REC-SVG-20010904/DTD/svg10.dtd">
<svg version="1.0" xmlns="http://www.w3.org/2000/svg"
 width="512.000000pt" height="512.000000pt" viewBox="0 0 512.000000 512.000000"
 preserveAspectRatio="xMidYMid meet">

<g transform="translate(0.000000,512.000000) scale(0.100000,-0.100000)"
fill="#9E7D5F" stroke="none">
<path d="M2513 5100 c-26 -23 -38 -91 -30 -162 8 -64 29 -88 77 -88 48 0 69
24 77 88 13 109 -18 182 -77 182 -14 0 -36 -9 -47 -20z"/>
<path d="M1935 4860 c-35 -39 -24 -75 46 -146 52 -53 69 -64 96 -64 42 0 73
30 73 72 0 25 -12 44 -63 95 -54 53 -69 63 -99 63 -22 0 -41 -7 -53 -20z"/>
<path d="M3033 4817 c-51 -51 -63 -70 -63 -95 0 -42 31 -72 73 -72 27 0 44 11
96 64 73 74 84 113 42 148 -44 35 -78 24 -148 -45z"/>
<path d="M2445 4705 c-72 -18 -114 -38 -172 -82 -128 -97 -193 -226 -193 -383
0 -134 47 -248 141 -342 195 -195 517 -187 698 18 62 70 98 146 85 181 -21 62
-101 69 -132 11 -82 -149 -214 -222 -363 -197 -175 28 -288 169 -277 348 6 93
36 158 103 220 71 66 124 86 225 86 108 0 175 -30 243 -108 26 -28 58 -64 71
-79 15 -17 35 -28 51 -28 29 0 75 40 75 66 0 35 -43 106 -99 162 -120 119
-296 169 -456 127z"/>
<path d="M1700 4290 c-28 -28 -26 -75 5 -105 22 -23 32 -25 110 -25 78 0 88 2
110 25 31 30 33 77 5 105 -17 17 -33 20 -115 20 -82 0 -98 -3 -115 -20z"/>
<path d="M3190 4290 c-28 -28 -26 -75 5 -105 22 -23 32 -25 110 -25 78 0 88 2
110 25 31 30 33 77 5 105 -17 17 -33 20 -115 20 -82 0 -98 -3 -115 -20z"/>
<path d="M1988 3773 c-33 -32 -64 -68 -69 -80 -17 -46 25 -103 77 -103 9 0 47
30 85 67 58 55 69 72 69 99 0 23 -8 38 -26 53 -43 34 -69 27 -136 -36z"/>
<path d="M2996 3809 c-18 -15 -26 -30 -26 -53 0 -27 11 -44 69 -99 38 -37 76
-67 85 -67 52 0 94 57 77 103 -5 12 -36 48 -69 80 -67 63 -93 70 -136 36z"/>
<path d="M2513 3610 c-26 -23 -38 -91 -30 -162 8 -64 29 -88 77 -88 48 0 69
24 77 88 13 109 -18 182 -77 182 -14 0 -36 -9 -47 -20z"/>
<path d="M21 2664 c-12 -15 -21 -34 -21 -42 0 -8 97 -331 216 -716 l217 -701
-73 -569 c-56 -444 -70 -574 -61 -592 22 -50 96 -56 125 -11 8 12 23 97 35
192 12 94 24 187 27 208 l6 37 649 0 c357 0 649 -2 649 -4 0 -4 74 -356 85
-403 7 -32 44 -63 75 -63 35 0 70 38 70 76 0 37 -223 1088 -249 1174 -11 36
-27 91 -36 122 -31 113 -151 210 -276 225 -31 4 -49 11 -49 19 0 7 -10 39 -22
71 -27 73 -102 154 -177 190 -55 28 -59 28 -282 31 l-226 4 -22 69 c-26 80
-52 105 -101 94 -17 -4 -38 -18 -47 -32 -14 -21 -15 -32 -5 -69 7 -24 12 -49
12 -54 0 -6 -36 -10 -84 -10 l-84 0 -11 33 c-42 133 -171 557 -171 561 0 14
78 4 117 -15 52 -25 76 -57 105 -140 27 -76 59 -99 108 -79 47 19 56 58 31
133 -56 168 -162 250 -329 253 -60 1 -88 6 -101 18 -28 25 -76 20 -100 -10z
m610 -1027 c60 -190 53 -187 384 -187 l245 0 0 -85 0 -85 -347 2 -348 3 -72
230 c-39 127 -72 234 -72 238 -1 4 38 6 86 5 l86 -3 38 -118z m519 101 c45
-24 93 -76 105 -116 l6 -22 -231 2 -232 3 -24 75 c-13 41 -24 76 -24 78 0 1
80 2 178 2 165 0 181 -2 222 -22z m376 -323 c42 -32 74 -81 74 -113 0 -22 -2
-23 -92 -20 l-93 3 -3 84 -3 84 41 -6 c22 -3 57 -17 76 -32z m124 -289 c0 -3
23 -111 50 -240 28 -130 50 -242 50 -251 0 -13 -71 -15 -621 -15 l-621 0 5 28
c2 15 17 129 33 255 l28 227 538 0 c296 0 538 -2 538 -4z"/>
<path d="M4998 2674 c-11 -12 -39 -16 -104 -18 -80 -2 -95 -5 -152 -35 -73
-40 -116 -85 -148 -156 -12 -27 -57 -163 -100 -302 l-77 -252 -226 -3 c-207
-3 -230 -5 -273 -25 -95 -44 -186 -153 -203 -245 -6 -34 -9 -36 -55 -41 -123
-15 -243 -112 -276 -225 -9 -31 -25 -86 -36 -122 -27 -94 -248 -1139 -248
-1177 0 -39 33 -73 70 -73 31 0 68 31 75 63 11 47 85 399 85 403 0 2 292 4
649 4 l649 0 6 -38 c3 -20 15 -113 27 -207 12 -95 27 -180 35 -192 29 -45 103
-39 125 11 9 18 -5 148 -61 592 l-73 569 217 701 c119 385 216 708 216 716 0
8 -9 27 -21 42 -24 30 -75 36 -101 10z m-68 -170 c0 -4 -129 -428 -171 -561
l-11 -33 -84 0 c-52 0 -84 4 -84 10 0 31 145 480 165 511 28 43 95 79 148 79
20 0 37 -3 37 -6z m-560 -746 c0 -2 -11 -37 -24 -78 l-24 -75 -232 -3 -231 -2
6 22 c12 40 60 92 105 116 41 20 57 22 222 22 98 0 178 -1 178 -2z m329 -5 c0
-5 -33 -111 -72 -238 l-72 -230 -348 -3 -347 -2 0 85 0 85 244 0 c149 0 256 4
273 11 53 20 72 49 109 169 20 63 38 118 41 123 2 4 42 7 89 7 46 0 84 -3 83
-7z m-991 -385 l-3 -83 -92 -3 c-89 -3 -93 -2 -93 18 0 65 93 150 163 150 l28
0 -3 -82z m866 -465 c16 -126 31 -240 33 -255 l6 -28 -622 0 c-550 0 -621 2
-621 15 0 9 23 121 50 251 28 129 50 237 50 240 0 2 242 4 538 4 l538 0 28
-227z"/>
<path d="M1824 2006 c-48 -21 -60 -75 -24 -114 19 -20 31 -22 129 -22 103 0
109 -1 154 -31 93 -61 180 -207 230 -387 20 -72 21 -105 25 -545 l3 -469 -115
-175 c-64 -96 -116 -179 -116 -184 0 -6 7 -23 15 -39 19 -36 59 -48 94 -29 14
8 75 87 135 177 l110 163 95 -3 96 -3 108 -160 c59 -88 115 -166 124 -172 41
-31 113 8 113 61 0 15 -46 94 -115 198 l-115 173 0 395 c0 227 5 433 11 485
28 231 121 421 253 517 38 27 43 28 157 28 109 0 120 2 139 22 37 40 21 97
-34 118 -18 6 -268 10 -734 10 -571 -1 -713 -3 -738 -14z m1006 -142 c0 -4
-20 -37 -45 -74 -79 -120 -132 -277 -155 -460 -5 -46 -10 -88 -10 -92 0 -5
-28 -8 -63 -8 l-63 0 -12 103 c-21 184 -82 360 -167 478 -19 27 -35 51 -35 54
0 3 124 5 275 5 151 0 275 -3 275 -6z m-210 -1074 l0 -290 -65 0 -65 0 0 290
0 290 65 0 65 0 0 -290z"/>
</g>
</svg>
